<svg width="18" height="18" viewBox="0 0 18 18" fill="none" xmlns="http://www.w3.org/2000/svg">
<path d="M17.3735 0.636481C17.277 0.540538 17.1551 0.474111 17.022 0.445009C16.889 0.415908 16.7505 0.425343 16.6226 0.472203L0.89009 6.18619C0.75441 6.2376 0.637597 6.32901 0.555167 6.44829C0.472736 6.56757 0.428589 6.70908 0.428589 6.85402C0.428589 6.99895 0.472736 7.14046 0.555167 7.25974C0.637597 7.37903 0.75441 7.47044 0.89009 7.52184L7.7552 10.2646L10.5012 17.1213C10.5528 17.2509 10.6413 17.3626 10.7556 17.4425C10.87 17.5225 11.0053 17.5673 11.1448 17.5713C11.2894 17.5684 11.4296 17.5217 11.547 17.4376C11.6645 17.3534 11.7536 17.2357 11.8028 17.0999L17.5237 1.38644C17.5724 1.26007 17.5841 1.12248 17.5576 0.989694C17.531 0.85691 17.4671 0.734411 17.3735 0.636481ZM11.1448 14.8572L9.14967 9.85744L12.5751 6.43618L11.5668 5.42909L8.11276 8.87891L3.13555 6.85759L15.6715 2.33639L11.1448 14.8572Z" fill="#FF6600"/>
</svg>
