<?xml version="1.0" encoding="iso-8859-1"?>
<!-- Generator: Adobe Illustrator 19.0.0, SVG Export Plug-In . SVG Version: 6.00 Build 0)  -->
<svg version="1.1" id="Layer_1" xmlns="http://www.w3.org/2000/svg" xmlns:xlink="http://www.w3.org/1999/xlink" x="0px" y="0px"
	 viewBox="0 0 390.206 390.206" style="enable-background:new 0 0 390.206 390.206;" xml:space="preserve">
<path style="fill:#FFC10D;" d="M302.933,311.628c0-17.907,14.61-33.034,33.034-33.034c17.907,0,33.034,14.61,33.034,33.034
	c0,17.907-14.61,33.034-33.034,33.034C317.608,344.663,302.933,329.471,302.933,311.628z"/>
<g>
	<path style="fill:#56ACE0;" d="M335.451,211.362c-32.517,0.517-61.802,16.226-79.644,40.663
		c-4.331-22.756-14.093-48.226-34.133-67.232h98.069c8.145,0.517,27.669,4.848,40.663,29.802
		C352.259,212.396,343.596,211.362,335.451,211.362z"/>
	<path style="fill:#56ACE0;" d="M316.509,139.281v23.855H196.202c4.331-14.093,17.907-23.855,33.034-23.855H316.509z"/>
</g>
<path style="fill:#FFFFFF;" d="M47.709,136.566v24.372c7.046-2.715,11.378-7.564,11.378-12.477
	C59.087,144.129,54.756,139.216,47.709,136.566z"/>
<path style="fill:#FFC10D;" d="M368.549,60.671v81.842c0,8.145-7.046,15.192-15.192,15.192c-8.145,0-15.192-7.046-15.192-15.192
	V60.671c0-8.145,7.046-15.192,15.192-15.192C361.503,45.479,368.549,52.525,368.549,60.671z"/>
<path style="fill:#194F82;" d="M390.206,142.513V60.671c0-20.622-16.808-36.848-36.848-36.848
	c-20.622,0-36.848,16.808-36.848,36.848v56.889h-87.273c-30.901,0-56.372,25.471-56.372,56.372c0,4.848,2.715,8.663,7.046,10.279
	l0,0c57.471,22.238,59.604,85.657,56.889,115.976h-82.877c-2.715-27.087-16.808-50.941-36.848-67.232v-81.261
	c0-5.947-4.848-10.861-10.861-10.861H81.842c0.517-7.046,0.517-14.61,1.099-22.238l28.703-15.709
	c5.43-2.715,7.046-9.244,4.331-14.61s-9.244-7.046-14.61-4.331l-34.133,18.424c-7.564,4.331-5.43,11.895-5.43,12.477
	c0,1.616,0,2.715,0,4.331c-7.046-3.814-15.192-5.947-24.372-5.947c-5.947,0-10.861,4.848-10.861,10.861v49.842
	c0,5.947,4.848,10.861,10.861,10.861c6.529,0,12.477-1.099,17.907-3.232c-2.715,13.576-5.947,24.372-7.564,30.319
	c-14.61,1.099-28.703,5.43-41.18,12.477c-5.43,2.715-7.046,9.762-4.331,14.61c2.715,5.43,9.762,7.046,14.61,4.331
	c11.378-6.529,24.954-10.279,38.465-10.279c42.279,0.517,77.511,35.232,77.511,78.61c0,5.947,4.848,10.861,10.861,10.861h102.982
	c14.093-1.616,10.279-14.61,11.895-23.855c5.947-36.848,38.465-65.034,76.929-65.034c13.576,0,26.57,3.232,38.465,10.279
	c9.762,4.848,17.907-3.814,15.709-12.477c-6.529-25.471-17.907-41.762-30.319-52.04C376.63,176.129,390.206,160.937,390.206,142.513
	z M47.709,160.937v-24.372c7.046,2.715,11.378,7.564,11.378,12.477C59.087,153.309,54.756,158.739,47.709,160.937z M95.354,220.541
	c-8.145-3.814-16.808-5.947-25.988-7.564c3.232-11.378,7.564-28.703,10.279-50.424h15.709V220.541z M255.806,251.96
	c-4.331-22.756-14.093-48.226-34.133-67.232l0,0h98.069c8.145,0.517,27.669,4.848,40.663,29.802
	c-8.145-2.198-16.808-3.232-24.954-3.232C302.933,211.879,273.713,227.588,255.806,251.96z M316.509,139.216v23.855H196.202
	c4.331-14.093,17.907-23.855,33.034-23.855H316.509z M368.549,142.513c0,8.145-7.046,15.192-15.192,15.192
	c-8.145,0-15.192-7.046-15.192-15.192V60.671c0-8.145,7.046-15.192,15.192-15.192c8.145,0,15.192,7.046,15.192,15.192V142.513z"/>
<path style="fill:#FFC10D;" d="M87.79,311.628c0,17.907-14.61,33.034-33.034,33.034s-33.034-15.192-33.034-33.034
	c0-17.907,14.61-33.034,33.034-33.034C73.18,278.529,87.79,293.139,87.79,311.628z"/>
<g>
	<path style="fill:#194F82;" d="M54.756,256.873C24.436,256.873,0,281.244,0,311.628s24.372,54.756,54.756,54.756
		s54.756-24.372,54.756-54.756C108.929,281.244,84.558,256.873,54.756,256.873z M21.657,311.564
		c0-17.907,14.61-33.034,33.034-33.034s33.034,14.61,33.034,33.034c0,17.907-14.61,33.034-33.034,33.034
		S21.657,329.471,21.657,311.564z"/>
	<path style="fill:#194F82;" d="M335.451,256.873c-30.319,0-54.756,24.372-54.756,54.756s24.372,54.756,54.756,54.756
		c30.384,0,54.756-24.372,54.756-54.756S365.834,256.873,335.451,256.873z M302.933,311.564c0-17.907,14.61-33.034,33.034-33.034
		c17.907,0,33.034,14.61,33.034,33.034c0,17.907-14.61,33.034-33.034,33.034C317.608,344.663,302.933,329.471,302.933,311.564z"/>
</g>
<g>
</g>
<g>
</g>
<g>
</g>
<g>
</g>
<g>
</g>
<g>
</g>
<g>
</g>
<g>
</g>
<g>
</g>
<g>
</g>
<g>
</g>
<g>
</g>
<g>
</g>
<g>
</g>
<g>
</g>
</svg>
